<?xml version="1.0" encoding="utf-8"?>
<!--

    Copyright (c) 2022 Oracle and/or its affiliates.

    Licensed under the Apache License, Version 2.0 (the "License");
    you may not use this file except in compliance with the License.
    You may obtain a copy of the License at

        http://www.apache.org/licenses/LICENSE-2.0

    Unless required by applicable law or agreed to in writing, software
    distributed under the License is distributed on an "AS IS" BASIS,
    WITHOUT WARRANTIES OR CONDITIONS OF ANY KIND, either express or implied.
    See the License for the specific language governing permissions and
    limitations under the License.

-->

<!--
    This data is borrowed from the Helidon web site SVG library. Any changes there should be reflected here as well.
-->
<svg viewBox="0 0 110 32.5" xmlns="http://www.w3.org/2000/svg">
    <style>
        #text, #logo {
          color: white;
        }
    </style>
    <defs>
        <symbol id="s_helidon.io" viewBox="0 0 110 32.5">
            <path id="logo" d="M 24.399 19.918 C 24.393 19.888 24.383 19.859 24.369 19.832 L 24.359 19.813 C 24.344 19.785 24.325 19.759 24.303 19.736 L 20.94 16.292 L 21.888 15.579 C 22.043 15.535 22.151 15.393 22.155 15.229 L 22.155 12.314 L 23.051 11.396 C 23.241 11.202 23.154 10.871 22.895 10.799 C 22.865 10.791 22.835 10.787 22.804 10.787 L 21.85 10.787 C 21.832 10.785 21.813 10.785 21.794 10.787 L 17.755 10.787 C 17.68 10.787 17.607 10.811 17.547 10.857 L 16.441 11.696 L 12.445 7.599 C 12.422 7.577 12.398 7.559 12.371 7.544 L 12.351 7.534 C 12.324 7.519 12.296 7.509 12.266 7.502 C 12.245 7.5 12.223 7.5 12.202 7.502 L 0.349 7.502 C 0.081 7.502 -0.087 7.799 0.047 8.037 C 0.062 8.064 0.081 8.089 0.103 8.112 L 8.953 17.172 L 2.214 22.092 C 1.995 22.251 2.026 22.593 2.27 22.708 C 2.316 22.73 2.366 22.741 2.416 22.741 L 12.199 22.749 C 12.22 22.751 12.241 22.751 12.262 22.749 L 12.273 22.749 C 12.291 22.745 12.308 22.74 12.325 22.734 L 12.336 22.734 C 12.354 22.726 12.372 22.716 12.389 22.705 L 12.402 22.696 L 13.517 21.864 L 23.805 32.396 C 23.995 32.59 24.319 32.501 24.388 32.235 C 24.398 32.198 24.402 32.159 24.399 32.119 L 24.399 19.985 C 24.401 19.963 24.401 19.941 24.399 19.918 Z M 23.215 19.633 L 16.47 19.633 L 20.364 16.719 L 23.215 19.633 Z M 21.444 14.878 L 19.647 14.878 L 21.439 13.044 L 21.444 14.878 Z M 12.552 14.878 L 12.552 8.708 L 18.57 14.868 L 12.552 14.878 Z M 17.876 11.499 L 21.444 11.499 L 21.444 12.034 L 19.1 14.418 L 16.935 12.201 L 17.876 11.499 Z M 11.849 8.209 L 11.849 19.129 L 1.188 8.209 L 11.849 8.209 Z M 3.501 22.02 L 9.449 17.677 L 11.849 20.128 L 11.849 22.027 L 3.501 22.02 Z M 12.548 15.596 L 20.68 15.596 L 12.547 21.682 L 12.548 15.596 Z M 23.702 31.263 L 14.08 21.413 L 15.511 20.342 L 23.702 20.342 L 23.702 31.263 Z" style="fill: currentColor"/>
            <path id="text" d="M 31.074 8.25 L 31.074 13.644 C 31.775 12.777 32.655 12.343 33.716 12.343 C 35.861 12.343 36.949 13.629 36.98 16.201 L 36.98 22.737 L 34.338 22.737 L 34.338 16.276 C 34.338 15.691 34.215 15.258 33.971 14.979 C 33.728 14.699 33.323 14.559 32.756 14.559 C 31.982 14.559 31.422 14.867 31.074 15.484 L 31.074 22.737 L 28.432 22.737 L 28.432 8.25 L 31.074 8.25 Z M 43.524 22.925 C 42.074 22.925 40.893 22.466 39.983 21.549 C 39.071 20.63 38.616 19.407 38.616 17.879 L 38.616 17.615 C 38.616 16.59 38.808 15.674 39.192 14.865 C 39.575 14.058 40.119 13.435 40.823 12.998 C 41.527 12.561 42.33 12.343 43.232 12.343 C 44.585 12.343 45.65 12.783 46.427 13.663 C 47.204 14.544 47.592 15.792 47.592 17.408 L 47.592 18.521 L 41.294 18.521 C 41.379 19.188 41.637 19.722 42.066 20.124 C 42.496 20.526 43.04 20.727 43.698 20.727 C 44.716 20.727 45.511 20.347 46.084 19.586 L 47.382 21.087 C 46.986 21.665 46.45 22.116 45.774 22.439 C 45.097 22.763 44.347 22.925 43.524 22.925 Z M 43.223 14.55 C 42.699 14.55 42.273 14.732 41.948 15.097 C 41.621 15.462 41.413 15.984 41.322 16.663 L 44.996 16.663 L 44.996 16.446 C 44.984 15.842 44.826 15.376 44.521 15.046 C 44.216 14.715 43.783 14.55 43.223 14.55 Z M 51.88 8.25 L 51.88 22.737 L 49.228 22.737 L 49.228 8.25 L 51.88 8.25 Z M 56.843 12.531 L 56.843 22.737 L 54.192 22.737 L 54.192 12.531 L 56.843 12.531 Z M 54.037 9.89 C 54.037 9.481 54.169 9.145 54.434 8.881 C 54.7 8.617 55.061 8.485 55.518 8.485 C 55.969 8.485 56.328 8.617 56.596 8.881 C 56.865 9.145 56.999 9.481 56.999 9.89 C 56.999 10.305 56.863 10.645 56.592 10.909 C 56.321 11.173 55.963 11.305 55.518 11.305 C 55.073 11.305 54.715 11.173 54.443 10.909 C 54.172 10.645 54.037 10.305 54.037 9.89 Z M 58.607 17.559 C 58.607 15.968 58.954 14.701 59.646 13.758 C 60.337 12.815 61.283 12.343 62.483 12.343 C 63.446 12.343 64.242 12.714 64.869 13.456 L 64.869 8.25 L 67.52 8.25 L 67.52 22.737 L 65.134 22.737 L 65.007 21.652 C 64.349 22.501 63.502 22.925 62.465 22.925 C 61.301 22.925 60.367 22.452 59.663 21.506 C 58.959 20.56 58.607 19.244 58.607 17.559 Z M 61.25 17.756 C 61.25 18.713 61.411 19.445 61.734 19.954 C 62.057 20.463 62.526 20.718 63.141 20.718 C 63.958 20.718 64.534 20.363 64.869 19.652 L 64.869 15.625 C 64.54 14.914 63.971 14.559 63.16 14.559 C 61.887 14.559 61.25 15.625 61.25 17.756 Z M 69.157 17.663 L 69.157 17.539 C 69.157 16.527 69.346 15.625 69.724 14.833 C 70.102 14.04 70.645 13.427 71.355 12.993 C 72.065 12.56 72.889 12.343 73.828 12.343 C 75.163 12.343 76.252 12.764 77.095 13.606 C 77.94 14.449 78.41 15.594 78.508 17.04 L 78.526 17.738 C 78.526 19.304 78.103 20.56 77.256 21.506 C 76.409 22.452 75.272 22.925 73.846 22.925 C 72.42 22.925 71.282 22.453 70.432 21.51 C 69.582 20.567 69.157 19.285 69.157 17.663 Z M 71.799 17.738 C 71.799 18.706 71.975 19.447 72.328 19.959 C 72.682 20.471 73.188 20.727 73.846 20.727 C 74.486 20.727 74.986 20.474 75.346 19.968 C 75.705 19.462 75.885 18.652 75.885 17.539 C 75.885 16.59 75.705 15.854 75.346 15.333 C 74.986 14.811 74.48 14.55 73.828 14.55 C 73.182 14.55 72.682 14.809 72.328 15.329 C 71.975 15.847 71.799 16.65 71.799 17.738 Z M 80.099 12.531 L 82.585 12.531 L 82.668 13.71 C 83.374 12.799 84.322 12.343 85.51 12.343 C 86.559 12.343 87.339 12.661 87.85 13.296 C 88.362 13.931 88.625 14.88 88.637 16.144 L 88.637 22.737 L 85.995 22.737 L 85.995 16.21 C 85.995 15.631 85.873 15.211 85.629 14.951 C 85.386 14.69 84.981 14.559 84.414 14.559 C 83.67 14.559 83.112 14.886 82.74 15.54 L 82.74 22.737 L 80.099 22.737 L 80.099 12.531 Z M 90.776 21.397 C 90.776 20.964 90.917 20.611 91.2 20.341 C 91.484 20.07 91.84 19.935 92.266 19.935 C 92.698 19.935 93.056 20.07 93.34 20.341 C 93.623 20.611 93.765 20.964 93.765 21.397 C 93.765 21.825 93.625 22.173 93.344 22.439 C 93.064 22.707 92.705 22.841 92.266 22.841 C 91.834 22.841 91.477 22.707 91.196 22.439 C 90.916 22.173 90.776 21.825 90.776 21.397 Z M 98.866 12.531 L 98.866 22.737 L 96.215 22.737 L 96.215 12.531 L 98.866 12.531 Z M 96.059 9.89 C 96.059 9.481 96.192 9.145 96.457 8.881 C 96.722 8.617 97.084 8.485 97.541 8.485 C 97.992 8.485 98.351 8.617 98.619 8.881 C 98.887 9.145 99.022 9.481 99.022 9.89 C 99.022 10.305 98.886 10.645 98.615 10.909 C 98.343 11.173 97.986 11.305 97.541 11.305 C 97.095 11.305 96.737 11.173 96.466 10.909 C 96.195 10.645 96.059 10.305 96.059 9.89 Z M 100.63 17.663 L 100.63 17.539 C 100.63 16.527 100.819 15.625 101.197 14.833 C 101.575 14.04 102.119 13.427 102.829 12.993 C 103.539 12.56 104.363 12.343 105.301 12.343 C 106.636 12.343 107.725 12.764 108.569 13.606 C 109.413 14.449 109.884 15.594 109.982 17.04 L 110 17.738 C 110 19.304 109.576 20.56 108.729 21.506 C 107.883 22.452 106.746 22.925 105.319 22.925 C 103.893 22.925 102.756 22.453 101.905 21.51 C 101.055 20.567 100.63 19.285 100.63 17.663 Z M 103.272 17.738 C 103.272 18.706 103.449 19.447 103.802 19.959 C 104.155 20.471 104.661 20.727 105.319 20.727 C 105.959 20.727 106.459 20.474 106.819 19.968 C 107.179 19.462 107.358 18.652 107.358 17.539 C 107.358 16.59 107.179 15.854 106.819 15.333 C 106.459 14.811 105.953 14.55 105.301 14.55 C 104.655 14.55 104.155 14.809 103.802 15.329 C 103.449 15.847 103.272 16.65 103.272 17.738 Z" style="fill: currentColor"/>
        </symbol>
    </defs>

    <use href="#s_helidon.io" />
</svg>

