<svg xmlns="http://www.w3.org/2000/svg" viewBox="0 0 109 109" role="img" aria-labelledby="title">
  <title>Helidon mark</title>
  <path
    fill="#F68313"
    d="M104.666 6.9096 63.5836 47.8925 69.6444 52.2461 104.666 52.2461ZM56.6994 47.9372 56.6994 72.755 91.2511 72.755ZM56.6994 101.614 80.5947 76.8072 56.6994 76.8072ZM79.661 90.1507 95.5605 90.1507 95.5605 90.1492 95.6166 90.1492C95.9616 90.1492 96.138 89.7357 95.9004 89.4862L95.5605 89.1292 95.5605 89.1272 85.0382 78.0362 76.0653 87.3518ZM95.7369 76.6267 89.041 76.6267 95.7369 83.6821ZM101.863 56.2978 75.2856 56.2978 90.8437 67.4734ZM52.6451 58.9529 6.92673 104.554 52.6451 104.554ZM52.6451 46.0038 17.9357 45.9269 42.2799 63.5679 52.6451 53.2298ZM108.111 55.7148C108.095 55.7319 108.09 55.7551 108.073 55.7723L94.1759 69.8664 98.7764 73.1711C98.7889 73.1804 98.795 73.195 98.8075 73.2048 98.9757 73.3346 99.1115 73.4854 99.2314 73.6609 99.275 73.722 99.3196 73.7791 99.3554 73.8444 99.4259 73.9763 99.4696 74.1143 99.5094 74.2605 99.5478 74.3917 99.5785 74.5184 99.5894 74.6548 99.5924 74.6989 99.6147 74.7362 99.6147 74.7808L99.6147 87.5117 102.717 90.7816C103.273 91.3687 103.428 92.232 103.109 92.977 102.789 93.7205 102.057 94.2023 101.246 94.2023L78.9659 94.2023C78.514 94.2023 78.0762 94.0529 77.7219 93.7759L73.2364 90.2871 56.2688 107.904C56.067 108.112 55.831 108.264 55.5793 108.367 55.3033 108.508 55.0034 108.606 54.6725 108.606L2.02635 108.606C1.20668 108.606 0.467419 108.112 0.154596 107.353-0.160302 106.596 0.0155634 105.723 0.595039 105.144L39.3747 66.4674 10.4783 45.5275C9.76444 45.0124 9.46771 44.0956 9.73902 43.2604 10.0124 42.4251 10.7885 41.8612 11.6668 41.8612 11.6689 41.8612 11.6689 41.8612 11.671 41.8612L54.6771 41.9562C54.8219 41.9567 54.9495 42.0101 55.0854 42.0392 55.1741 42.0569 55.2618 42.064 55.349 42.0931 55.4615 42.1336 55.5596 42.1913 55.6618 42.2504 55.7344 42.2898 55.8128 42.3111 55.8817 42.3603L60.2477 45.4963 105.261 0.591926C105.65 0.204918 106.167 0 106.692 0 106.954 0 107.218 0.0498027 107.469 0.154078 108.226 0.467938 108.72 1.2072 108.72 2.02583L108.72 54.2719C108.72 54.838 108.485 55.3474 108.111 55.7148"
    transform="translate(0 109) scale(1 -1)"
  />
</svg>
