<svg width="111" height="111" xmlns="http://www.w3.org/2000/svg" xmlns:xlink="http://www.w3.org/1999/xlink"
     xml:space="preserve" overflow="hidden"><defs><clipPath id="clip0"><rect x="325" y="204" width="111" height="109"/></clipPath><clipPath
        id="clip1"><rect x="325" y="204" width="111" height="109"/></clipPath><clipPath id="clip2"><rect x="326" y="204" width="110" height="109"/></clipPath><clipPath
        id="clip3"><rect x="326" y="204" width="110" height="109"/></clipPath></defs>
    <g clip-path="url(#clip0)" transform="translate(-325 -204)"><g clip-path="url(#clip1)"><g clip-path="url(#clip2)"><g clip-path="url(#clip3)"><path d="M163.184 88.9678C157.889 88.9678 153.422 86.9898 149.904 83.0881L149.904 108.375 138.679 108.375 138.679 39.3317 149.904 39.3317 149.904 74.0297C152.005 77.8011 155.225 79.7129 159.474 79.7129 162.215 79.7129 164.316 79.0291 165.722 77.6835 167.123 76.3372 167.835 73.9975 167.835 70.7234L167.835 39.3317 179.059 39.3317 179.059 71.1266C178.906 82.9656 173.566 88.9678 163.184 88.9678" fill="#FFFFFF" fill-rule="nonzero" fill-opacity="1" transform="matrix(1 0 0 -1.00359 326.121 313)"/><path
            d="M209.87 79.8909C212.812 79.8909 215.145 78.9716 216.804 77.1528 218.467 75.3292 219.428 72.5911 219.663 69.023L219.663 68.3979 199.342 68.3979C199.856 71.9747 201.013 74.8078 202.783 76.8212 204.571 78.8579 206.958 79.8909 209.87 79.8909ZM209.914 88.9678C205.756 88.9678 201.932 87.8909 198.549 85.7639 195.17 83.6395 192.508 80.6279 190.638 76.8165 188.771 73.0102 187.824 68.6271 187.824 63.7921L187.824 62.4505C187.824 55.2224 190.001 49.3493 194.292 44.9963 198.587 40.6453 204.263 38.4373 211.167 38.4373 215.198 38.4373 218.889 39.2481 222.135 40.847 225.381 42.4501 228.014 44.7343 229.962 47.6373L230.046 47.7624 223.937 53.5913 223.815 53.4362C220.735 49.4769 216.69 47.4682 211.793 47.4682 208.311 47.4682 205.382 48.6241 203.086 50.9041 200.824 53.1514 199.502 56.2392 199.152 60.0808L230.753 60.0808 230.753 64.6423C230.753 72.341 228.925 78.3807 225.319 82.5993 221.708 86.8254 216.524 88.9678 209.914 88.9678"
            fill="#FFFFFF" fill-rule="nonzero" fill-opacity="1" transform="matrix(1 0 0 -1.00359 326.121 313)"/><path
            d="M239.519 39.3317 250.741 39.3317 250.741 108.375 239.519 108.375 239.519 39.3317" fill="#FFFFFF"
            fill-rule="nonzero" fill-opacity="1" transform="matrix(1 0 0 -1.00359 326.121 313)"/><path
            d="M268.539 106.453C266.532 106.453 264.964 105.878 263.873 104.743 262.787 103.61 262.235 102.169 262.235 100.459 262.235 98.7795 262.787 97.3616 263.873 96.2428 264.96 95.1258 266.531 94.5582 268.539 94.5582 270.55 94.5582 272.127 95.1258 273.228 96.2428 274.331 97.3616 274.89 98.7795 274.89 100.459 274.89 102.167 274.331 103.61 273.228 104.745 272.123 105.878 270.546 106.453 268.539 106.453"
            fill="#FFFFFF" fill-rule="nonzero" fill-opacity="1" transform="matrix(1 0 0 -1.00359 326.121 313)"/><path
            d="M262.907 39.3317 274.129 39.3317 274.129 88.074 262.907 88.074 262.907 39.3317" fill="#FFFFFF"
            fill-rule="nonzero" fill-opacity="1" transform="matrix(1 0 0 -1.00359 326.121 313)"/><path
            d="M305.522 47.6487C302.111 47.6487 299.444 49.0137 297.596 51.7056 295.733 54.4183 294.79 58.2599 294.79 63.1202 294.79 68.664 295.742 72.8644 297.618 75.6098 299.484 78.3318 302.171 79.7129 305.612 79.7129 309.947 79.7129 313.137 77.8011 315.092 74.0318L315.092 53.4617C313.076 49.604 309.858 47.6487 305.522 47.6487ZM315.092 83.8828C311.95 87.2585 307.829 88.9678 302.839 88.9678 296.996 88.9678 292.268 86.6651 288.789 82.122 285.324 77.5973 283.566 71.5208 283.566 64.0608 283.566 56.2164 285.347 49.9216 288.857 45.3485 292.378 40.7636 297.051 38.4373 302.749 38.4373 308.058 38.4373 312.388 40.3371 315.63 44.0858L316.122 39.4914 316.138 39.3317 326.314 39.3317 326.314 108.375 315.092 108.375 315.092 83.8828"
            fill="#FFFFFF" fill-rule="nonzero" fill-opacity="1" transform="matrix(1 0 0 -1.00359 326.121 313)"/><path
            d="M357.975 47.4682C354.385 47.4682 351.546 48.8652 349.533 51.62 347.51 54.3908 346.483 58.2894 346.483 63.2105 346.483 68.7522 347.523 72.9662 349.579 75.7369 351.618 78.4937 354.413 79.8909 357.886 79.8909 361.418 79.8909 364.249 78.4709 366.306 75.6721 368.374 72.8505 369.425 68.9746 369.425 64.1486 369.425 58.6997 368.405 54.5065 366.394 51.687 364.397 48.8861 361.564 47.4682 357.975 47.4682ZM373.912 82.6061C369.824 86.8274 364.431 88.9678 357.886 88.9678 353.461 88.9678 349.49 87.9277 346.078 85.8775 342.665 83.8273 339.981 80.8548 338.095 77.0391 336.214 73.235 335.259 68.8979 335.259 64.1486L335.259 63.6136C335.259 56.0307 337.344 49.8727 341.454 45.3158 345.568 40.7522 351.126 38.4373 357.975 38.4373 362.458 38.4373 366.468 39.4848 369.897 41.549 373.324 43.6132 375.995 46.5718 377.834 50.3407 379.671 54.1081 380.603 58.4378 380.603 63.2127L380.558 65.7681C380.227 72.7275 377.992 78.3921 373.912 82.6061"
            fill="#FFFFFF" fill-rule="nonzero" fill-opacity="1" transform="matrix(1 0 0 -1.00359 326.121 313)"/><path
            d="M414.096 88.9678C408.41 88.9678 403.726 86.8809 400.163 82.7617L399.867 88.074 389.279 88.074 389.279 39.3317 400.501 39.3317 400.501 73.8953C402.605 77.7551 405.842 79.7129 410.115 79.7129 413.06 79.7129 415.203 78.9876 416.491 77.5578 417.781 76.1193 418.434 73.8653 418.434 70.8557L418.434 39.3317 429.658 39.3317 429.658 71.4862C429.476 83.0859 424.243 88.9678 414.096 88.9678"
            fill="#FFFFFF" fill-rule="nonzero" fill-opacity="1" transform="matrix(1 0 0 -1.00359 326.121 313)"/><path
            d="M446.408 51.1354C444.369 51.1354 442.761 50.5378 441.628 49.3586 440.498 48.1815 439.923 46.6875 439.923 44.9194 439.923 43.1473 440.514 41.6761 441.677 40.5457 442.838 39.4127 444.426 38.8383 446.408 38.8383 448.471 38.8383 450.093 39.4198 451.229 40.569 452.361 41.7181 452.936 43.182 452.936 44.9194 452.936 46.6848 452.361 48.1794 451.229 49.3586 450.096 50.5378 448.474 51.1354 446.408 51.1354"
            fill="#FFFFFF" fill-rule="nonzero" fill-opacity="1" transform="matrix(1 0 0 -1.00359 326.121 313)"/><path
            d="M470.443 106.453C468.435 106.453 466.864 105.878 465.778 104.743 464.691 103.61 464.14 102.169 464.14 100.459 464.14 98.7795 464.691 97.3616 465.778 96.2447 466.863 95.1258 468.432 94.5582 470.443 94.5582 472.452 94.5582 474.03 95.1258 475.133 96.2428 476.236 97.3616 476.794 98.7795 476.794 100.459 476.794 102.167 476.236 103.61 475.133 104.745 474.025 105.878 472.447 106.453 470.443 106.453"
            fill="#FFFFFF" fill-rule="nonzero" fill-opacity="1" transform="matrix(1 0 0 -1.00359 326.121 313)"/><path
            d="M464.809 39.3317 476.032 39.3317 476.032 88.074 464.809 88.074 464.809 39.3317" fill="#FFFFFF"
            fill-rule="nonzero" fill-opacity="1" transform="matrix(1 0 0 -1.00359 326.121 313)"/><path
            d="M508.186 47.4682C504.597 47.4682 501.756 48.8652 499.743 51.62 497.719 54.3929 496.692 58.292 496.692 63.2105 496.692 68.7522 497.732 72.9662 499.788 75.7369 501.828 78.4937 504.625 79.8909 508.095 79.8909 511.624 79.8909 514.457 78.4709 516.517 75.6721 518.586 72.8526 519.632 68.9768 519.632 64.1486 519.632 58.6997 518.614 54.5065 516.603 51.687 514.608 48.8861 511.774 47.4682 508.186 47.4682ZM530.767 65.7681C530.436 72.7302 528.2 78.3941 524.12 82.6061 520.036 86.8274 514.643 88.9678 508.095 88.9678 503.67 88.9678 499.699 87.9277 496.287 85.8775 492.874 83.8273 490.189 80.8526 488.306 77.0391 486.425 73.235 485.47 68.8979 485.47 64.1486L485.47 63.6136C485.47 56.0286 487.555 49.8707 491.666 45.3158 495.78 40.7522 501.338 38.4373 508.186 38.4373 512.669 38.4373 516.679 39.4848 520.105 41.549 523.531 43.6106 526.204 46.5691 528.043 50.3407 529.88 54.1034 530.811 58.4331 530.811 63.2127L530.767 65.7681"
            fill="#FFFFFF" fill-rule="nonzero" fill-opacity="1" transform="matrix(1 0 0 -1.00359 326.121 313)"/><path
            d="M104.666 6.9096 63.5836 47.8925 69.6444 52.2461 104.666 52.2461ZM56.6994 47.9372 56.6994 72.755 91.2511 72.755ZM56.6994 101.614 80.5947 76.8072 56.6994 76.8072ZM79.661 90.1507 95.5605 90.1507 95.5605 90.1492 95.6166 90.1492C95.9616 90.1492 96.138 89.7357 95.9004 89.4862L95.5605 89.1292 95.5605 89.1272 85.0382 78.0362 76.0653 87.3518ZM95.7369 76.6267 89.041 76.6267 95.7369 83.6821ZM101.863 56.2978 75.2856 56.2978 90.8437 67.4734ZM52.6451 58.9529 6.92673 104.554 52.6451 104.554ZM52.6451 46.0038 17.9357 45.9269 42.2799 63.5679 52.6451 53.2298ZM108.111 55.7148C108.095 55.7319 108.09 55.7551 108.073 55.7723L94.1759 69.8664 98.7764 73.1711C98.7889 73.1804 98.795 73.195 98.8075 73.2048 98.9757 73.3346 99.1115 73.4854 99.2314 73.6609 99.275 73.722 99.3196 73.7791 99.3554 73.8444 99.4259 73.9763 99.4696 74.1143 99.5094 74.2605 99.5478 74.3917 99.5785 74.5184 99.5894 74.6548 99.5924 74.6989 99.6147 74.7362 99.6147 74.7808L99.6147 87.5117 102.717 90.7816C103.273 91.3687 103.428 92.232 103.109 92.977 102.789 93.7205 102.057 94.2023 101.246 94.2023L78.9659 94.2023C78.514 94.2023 78.0762 94.0529 77.7219 93.7759L73.2364 90.2871 56.2688 107.904C56.067 108.112 55.831 108.264 55.5793 108.367 55.3033 108.508 55.0034 108.606 54.6725 108.606L2.02635 108.606C1.20668 108.606 0.467419 108.112 0.154596 107.353-0.160302 106.596 0.0155634 105.723 0.595039 105.144L39.3747 66.4674 10.4783 45.5275C9.76444 45.0124 9.46771 44.0956 9.73902 43.2604 10.0124 42.4251 10.7885 41.8612 11.6668 41.8612 11.6689 41.8612 11.6689 41.8612 11.671 41.8612L54.6771 41.9562C54.8219 41.9567 54.9495 42.0101 55.0854 42.0392 55.1741 42.0569 55.2618 42.064 55.349 42.0931 55.4615 42.1336 55.5596 42.1913 55.6618 42.2504 55.7344 42.2898 55.8128 42.3111 55.8817 42.3603L60.2477 45.4963 105.261 0.591926C105.65 0.204918 106.167 0 106.692 0 106.954 0 107.218 0.0498027 107.469 0.154078 108.226 0.467938 108.72 1.2072 108.72 2.02583L108.72 54.2719C108.72 54.838 108.485 55.3474 108.111 55.7148"
            fill="#F68313" fill-rule="nonzero" fill-opacity="1" transform="matrix(1 0 0 -1.00359 326.121 313)"/></g></g></g></g></svg>